<mxfile host="app.diagrams.net" agent="Mozilla/5.0 (Windows NT 10.0; Win64; x64) AppleWebKit/537.36 (KHTML, like Gecko) Chrome/132.0.0.0 Safari/537.36" version="26.0.6">
  <diagram name="1 oldal" id="Z8Hhr-wJvlwe8vJiDH7l">
    <mxGraphModel dx="778" dy="413" grid="1" gridSize="10" guides="1" tooltips="1" connect="1" arrows="1" fold="1" page="1" pageScale="1" pageWidth="827" pageHeight="1169" math="0" shadow="0">
      <root>
        <mxCell id="0" />
        <mxCell id="1" parent="0" />
        <mxCell id="UnwkuYM1VTVZ2C7SZJSA-1" value="&lt;p style=&quot;margin:0px;margin-top:4px;text-align:center;&quot;&gt;&lt;i&gt;&amp;lt;&amp;lt;Interface&amp;gt;&amp;gt;&lt;/i&gt;&lt;br&gt;&lt;b&gt;PaymentMethod&lt;/b&gt;&lt;/p&gt;&lt;hr size=&quot;1&quot; style=&quot;border-style:solid;&quot;&gt;&lt;p style=&quot;margin:0px;margin-left:4px;&quot;&gt;# paymentProcessor: PaymentMethod&lt;br&gt;&amp;nbsp;&lt;/p&gt;&lt;hr size=&quot;1&quot; style=&quot;border-style:solid;&quot;&gt;&lt;p style=&quot;margin:0px;margin-left:4px;&quot;&gt;+ PaymentMethod(PaymentProcessor)&lt;/p&gt;&lt;p style=&quot;margin:0px;margin-left:4px;&quot;&gt;+ Pay(float): float&lt;/p&gt;" style="verticalAlign=top;align=left;overflow=fill;html=1;whiteSpace=wrap;fillColor=#fad7ac;strokeColor=#b46504;" vertex="1" parent="1">
          <mxGeometry x="150" y="110" width="230" height="140" as="geometry" />
        </mxCell>
        <mxCell id="UnwkuYM1VTVZ2C7SZJSA-2" value="&lt;p style=&quot;margin:0px;margin-top:4px;text-align:center;&quot;&gt;&lt;i&gt;&amp;lt;&amp;lt;Interface&amp;gt;&amp;gt;&lt;/i&gt;&lt;br&gt;&lt;b&gt;PaymentProcessor&lt;/b&gt;&lt;/p&gt;&lt;hr size=&quot;1&quot; style=&quot;border-style:solid;&quot;&gt;&lt;p style=&quot;margin:0px;margin-left:4px;&quot;&gt;&amp;nbsp;&lt;br&gt;&amp;nbsp;&lt;/p&gt;&lt;hr size=&quot;1&quot; style=&quot;border-style:solid;&quot;&gt;&lt;p style=&quot;margin:0px;margin-left:4px;&quot;&gt;+ ProcessPayment(float): float&lt;/p&gt;" style="verticalAlign=top;align=left;overflow=fill;html=1;whiteSpace=wrap;fillColor=#fad7ac;strokeColor=#b46504;" vertex="1" parent="1">
          <mxGeometry x="540" y="110" width="230" height="140" as="geometry" />
        </mxCell>
        <mxCell id="UnwkuYM1VTVZ2C7SZJSA-3" value="&lt;p style=&quot;margin:0px;margin-top:4px;text-align:center;&quot;&gt;&lt;b&gt;USPaymentProcessor&lt;/b&gt;&lt;/p&gt;&lt;hr size=&quot;1&quot; style=&quot;border-style:solid;&quot;&gt;&lt;p style=&quot;margin:0px;margin-left:4px;&quot;&gt;+ &lt;u&gt;taxUS&lt;/u&gt;: float&lt;/p&gt;&lt;hr size=&quot;1&quot; style=&quot;border-style:solid;&quot;&gt;&lt;p style=&quot;margin:0px;margin-left:4px;&quot;&gt;&lt;br&gt;&lt;/p&gt;" style="verticalAlign=top;align=left;overflow=fill;html=1;whiteSpace=wrap;fillColor=#fad7ac;strokeColor=#b46504;" vertex="1" parent="1">
          <mxGeometry x="470" y="300" width="160" height="80" as="geometry" />
        </mxCell>
        <mxCell id="UnwkuYM1VTVZ2C7SZJSA-5" style="edgeStyle=orthogonalEdgeStyle;rounded=0;orthogonalLoop=1;jettySize=auto;html=1;endSize=10;strokeWidth=2;fillColor=#fad7ac;strokeColor=#b46504;endArrow=block;endFill=0;" edge="1" parent="1" source="UnwkuYM1VTVZ2C7SZJSA-4" target="UnwkuYM1VTVZ2C7SZJSA-2">
          <mxGeometry relative="1" as="geometry" />
        </mxCell>
        <mxCell id="UnwkuYM1VTVZ2C7SZJSA-4" value="&lt;p style=&quot;margin:0px;margin-top:4px;text-align:center;&quot;&gt;&lt;b&gt;HungarianPaymentProcessor&lt;/b&gt;&lt;/p&gt;&lt;hr size=&quot;1&quot; style=&quot;border-style:solid;&quot;&gt;&lt;p style=&quot;margin:0px;margin-left:4px;&quot;&gt;+ &lt;u&gt;taxHU&lt;/u&gt;: float&lt;/p&gt;&lt;hr size=&quot;1&quot; style=&quot;border-style:solid;&quot;&gt;&lt;p style=&quot;margin:0px;margin-left:4px;&quot;&gt;&lt;br&gt;&lt;/p&gt;" style="verticalAlign=top;align=left;overflow=fill;html=1;whiteSpace=wrap;fillColor=#fad7ac;strokeColor=#b46504;" vertex="1" parent="1">
          <mxGeometry x="667" y="300" width="183" height="80" as="geometry" />
        </mxCell>
        <mxCell id="UnwkuYM1VTVZ2C7SZJSA-6" style="edgeStyle=orthogonalEdgeStyle;rounded=0;orthogonalLoop=1;jettySize=auto;html=1;endSize=10;strokeWidth=2;fillColor=#fad7ac;strokeColor=#b46504;endArrow=block;endFill=0;" edge="1" parent="1" source="UnwkuYM1VTVZ2C7SZJSA-3" target="UnwkuYM1VTVZ2C7SZJSA-2">
          <mxGeometry relative="1" as="geometry">
            <mxPoint x="769" y="310" as="sourcePoint" />
            <mxPoint x="665" y="260" as="targetPoint" />
          </mxGeometry>
        </mxCell>
        <mxCell id="UnwkuYM1VTVZ2C7SZJSA-7" style="edgeStyle=orthogonalEdgeStyle;rounded=0;orthogonalLoop=1;jettySize=auto;html=1;endSize=10;strokeWidth=2;fillColor=#fad7ac;strokeColor=#b46504;endArrow=diamondThin;endFill=0;" edge="1" parent="1" source="UnwkuYM1VTVZ2C7SZJSA-2" target="UnwkuYM1VTVZ2C7SZJSA-1">
          <mxGeometry relative="1" as="geometry">
            <mxPoint x="560" y="310" as="sourcePoint" />
            <mxPoint x="665" y="260" as="targetPoint" />
          </mxGeometry>
        </mxCell>
        <mxCell id="UnwkuYM1VTVZ2C7SZJSA-8" value="&lt;p style=&quot;margin:0px;margin-top:4px;text-align:center;&quot;&gt;&lt;b&gt;GooglePayPayment&lt;/b&gt;&lt;/p&gt;&lt;hr size=&quot;1&quot; style=&quot;border-style:solid;&quot;&gt;&lt;p style=&quot;margin:0px;margin-left:4px;&quot;&gt;+ &lt;u&gt;googlePayFee&lt;/u&gt;: float&lt;/p&gt;&lt;hr size=&quot;1&quot; style=&quot;border-style:solid;&quot;&gt;&lt;p style=&quot;margin:0px;margin-left:4px;&quot;&gt;&lt;br&gt;&lt;/p&gt;" style="verticalAlign=top;align=left;overflow=fill;html=1;whiteSpace=wrap;fillColor=#fad7ac;strokeColor=#b46504;" vertex="1" parent="1">
          <mxGeometry x="80" y="300" width="160" height="80" as="geometry" />
        </mxCell>
        <mxCell id="UnwkuYM1VTVZ2C7SZJSA-9" style="edgeStyle=orthogonalEdgeStyle;rounded=0;orthogonalLoop=1;jettySize=auto;html=1;endSize=10;strokeWidth=2;fillColor=#fad7ac;strokeColor=#b46504;endArrow=block;endFill=0;exitX=0.463;exitY=0.01;exitDx=0;exitDy=0;exitPerimeter=0;" edge="1" parent="1" source="UnwkuYM1VTVZ2C7SZJSA-8" target="UnwkuYM1VTVZ2C7SZJSA-1">
          <mxGeometry relative="1" as="geometry">
            <mxPoint x="560" y="310" as="sourcePoint" />
            <mxPoint x="665" y="260" as="targetPoint" />
          </mxGeometry>
        </mxCell>
        <mxCell id="UnwkuYM1VTVZ2C7SZJSA-10" value="&lt;p style=&quot;margin:0px;margin-top:4px;text-align:center;&quot;&gt;&lt;b&gt;CreditCardPayment&lt;/b&gt;&lt;/p&gt;&lt;hr size=&quot;1&quot; style=&quot;border-style:solid;&quot;&gt;&lt;p style=&quot;margin:0px;margin-left:4px;&quot;&gt;+ &lt;u&gt;creditCardFee&lt;/u&gt;: float&lt;/p&gt;&lt;hr size=&quot;1&quot; style=&quot;border-style:solid;&quot;&gt;&lt;p style=&quot;margin:0px;margin-left:4px;&quot;&gt;&lt;br&gt;&lt;/p&gt;" style="verticalAlign=top;align=left;overflow=fill;html=1;whiteSpace=wrap;fillColor=#fad7ac;strokeColor=#b46504;" vertex="1" parent="1">
          <mxGeometry x="270" y="300" width="160" height="80" as="geometry" />
        </mxCell>
        <mxCell id="UnwkuYM1VTVZ2C7SZJSA-11" style="edgeStyle=orthogonalEdgeStyle;rounded=0;orthogonalLoop=1;jettySize=auto;html=1;endSize=10;strokeWidth=2;fillColor=#fad7ac;strokeColor=#b46504;endArrow=block;endFill=0;" edge="1" parent="1" source="UnwkuYM1VTVZ2C7SZJSA-10" target="UnwkuYM1VTVZ2C7SZJSA-1">
          <mxGeometry relative="1" as="geometry">
            <mxPoint x="164" y="311" as="sourcePoint" />
            <mxPoint x="275" y="260" as="targetPoint" />
          </mxGeometry>
        </mxCell>
      </root>
    </mxGraphModel>
  </diagram>
</mxfile>
